<mxfile host="app.diagrams.net" modified="2023-10-25T03:15:30.612Z" agent="Mozilla/5.0 (Macintosh; Intel Mac OS X 10_15_7) AppleWebKit/537.36 (KHTML, like Gecko) Chrome/117.0.0.0 Safari/537.36" etag="GmrxOc7kHppgbtmFIqCq" version="22.0.7" type="github">
  <diagram id="C5RBs43oDa-KdzZeNtuy" name="Page-1">
    <mxGraphModel dx="1621" dy="1654" grid="1" gridSize="10" guides="1" tooltips="1" connect="1" arrows="1" fold="1" page="1" pageScale="1" pageWidth="827" pageHeight="1169" math="0" shadow="0">
      <root>
        <mxCell id="WIyWlLk6GJQsqaUBKTNV-0" />
        <mxCell id="WIyWlLk6GJQsqaUBKTNV-1" parent="WIyWlLk6GJQsqaUBKTNV-0" />
        <mxCell id="gdpJ4mHGTSDNpWsRKSU2-2" value="" style="edgeStyle=orthogonalEdgeStyle;rounded=0;orthogonalLoop=1;jettySize=auto;html=1;" edge="1" parent="WIyWlLk6GJQsqaUBKTNV-1" source="gdpJ4mHGTSDNpWsRKSU2-0" target="gdpJ4mHGTSDNpWsRKSU2-1">
          <mxGeometry relative="1" as="geometry" />
        </mxCell>
        <mxCell id="gdpJ4mHGTSDNpWsRKSU2-5" value="第一步" style="edgeLabel;html=1;align=center;verticalAlign=middle;resizable=0;points=[];" vertex="1" connectable="0" parent="gdpJ4mHGTSDNpWsRKSU2-2">
          <mxGeometry x="-0.15" y="2" relative="1" as="geometry">
            <mxPoint as="offset" />
          </mxGeometry>
        </mxCell>
        <mxCell id="gdpJ4mHGTSDNpWsRKSU2-7" value="" style="edgeStyle=orthogonalEdgeStyle;rounded=0;orthogonalLoop=1;jettySize=auto;html=1;" edge="1" parent="WIyWlLk6GJQsqaUBKTNV-1" source="gdpJ4mHGTSDNpWsRKSU2-0" target="gdpJ4mHGTSDNpWsRKSU2-6">
          <mxGeometry relative="1" as="geometry">
            <Array as="points">
              <mxPoint x="200" y="430" />
            </Array>
          </mxGeometry>
        </mxCell>
        <mxCell id="gdpJ4mHGTSDNpWsRKSU2-8" value="第二步" style="edgeLabel;html=1;align=center;verticalAlign=middle;resizable=0;points=[];" vertex="1" connectable="0" parent="gdpJ4mHGTSDNpWsRKSU2-7">
          <mxGeometry x="-0.3654" y="2" relative="1" as="geometry">
            <mxPoint y="1" as="offset" />
          </mxGeometry>
        </mxCell>
        <mxCell id="gdpJ4mHGTSDNpWsRKSU2-0" value="开始" style="rounded=1;whiteSpace=wrap;html=1;horizontal=1;verticalAlign=middle;" vertex="1" parent="WIyWlLk6GJQsqaUBKTNV-1">
          <mxGeometry x="120" y="90" width="160" height="60" as="geometry" />
        </mxCell>
        <mxCell id="gdpJ4mHGTSDNpWsRKSU2-10" value="" style="edgeStyle=orthogonalEdgeStyle;rounded=0;orthogonalLoop=1;jettySize=auto;html=1;" edge="1" parent="WIyWlLk6GJQsqaUBKTNV-1" source="gdpJ4mHGTSDNpWsRKSU2-1" target="gdpJ4mHGTSDNpWsRKSU2-9">
          <mxGeometry relative="1" as="geometry">
            <Array as="points">
              <mxPoint x="530" y="120" />
              <mxPoint x="530" y="-10" />
            </Array>
          </mxGeometry>
        </mxCell>
        <mxCell id="gdpJ4mHGTSDNpWsRKSU2-1" value="OpenSheetMusicDisplay .load()&lt;br&gt;初始化" style="rounded=1;whiteSpace=wrap;html=1;horizontal=1;verticalAlign=middle;" vertex="1" parent="WIyWlLk6GJQsqaUBKTNV-1">
          <mxGeometry x="360" y="90" width="160" height="60" as="geometry" />
        </mxCell>
        <mxCell id="gdpJ4mHGTSDNpWsRKSU2-31" value="" style="edgeStyle=orthogonalEdgeStyle;rounded=0;orthogonalLoop=1;jettySize=auto;html=1;" edge="1" parent="WIyWlLk6GJQsqaUBKTNV-1" source="gdpJ4mHGTSDNpWsRKSU2-6" target="gdpJ4mHGTSDNpWsRKSU2-30">
          <mxGeometry relative="1" as="geometry" />
        </mxCell>
        <mxCell id="gdpJ4mHGTSDNpWsRKSU2-6" value="OpenSheetMusicDisplay.render()&lt;br&gt;渲染乐谱" style="rounded=1;whiteSpace=wrap;html=1;horizontal=1;verticalAlign=middle;" vertex="1" parent="WIyWlLk6GJQsqaUBKTNV-1">
          <mxGeometry x="-100" y="690" width="240" height="60" as="geometry" />
        </mxCell>
        <mxCell id="gdpJ4mHGTSDNpWsRKSU2-12" value="" style="edgeStyle=orthogonalEdgeStyle;rounded=0;orthogonalLoop=1;jettySize=auto;html=1;" edge="1" parent="WIyWlLk6GJQsqaUBKTNV-1" source="gdpJ4mHGTSDNpWsRKSU2-9" target="gdpJ4mHGTSDNpWsRKSU2-11">
          <mxGeometry relative="1" as="geometry" />
        </mxCell>
        <mxCell id="gdpJ4mHGTSDNpWsRKSU2-36" style="edgeStyle=orthogonalEdgeStyle;rounded=0;orthogonalLoop=1;jettySize=auto;html=1;exitX=0.5;exitY=1;exitDx=0;exitDy=0;entryX=0.5;entryY=0;entryDx=0;entryDy=0;" edge="1" parent="WIyWlLk6GJQsqaUBKTNV-1" source="gdpJ4mHGTSDNpWsRKSU2-9" target="gdpJ4mHGTSDNpWsRKSU2-14">
          <mxGeometry relative="1" as="geometry" />
        </mxCell>
        <mxCell id="gdpJ4mHGTSDNpWsRKSU2-9" value="ZIP格式" style="rounded=1;whiteSpace=wrap;html=1;horizontal=1;verticalAlign=middle;" vertex="1" parent="WIyWlLk6GJQsqaUBKTNV-1">
          <mxGeometry x="630" y="-40" width="160" height="60" as="geometry" />
        </mxCell>
        <mxCell id="gdpJ4mHGTSDNpWsRKSU2-13" style="edgeStyle=orthogonalEdgeStyle;rounded=0;orthogonalLoop=1;jettySize=auto;html=1;exitX=0.5;exitY=0;exitDx=0;exitDy=0;entryX=0.5;entryY=0;entryDx=0;entryDy=0;" edge="1" parent="WIyWlLk6GJQsqaUBKTNV-1" source="gdpJ4mHGTSDNpWsRKSU2-11" target="gdpJ4mHGTSDNpWsRKSU2-1">
          <mxGeometry relative="1" as="geometry">
            <Array as="points">
              <mxPoint x="955" y="-70" />
              <mxPoint x="440" y="-70" />
            </Array>
          </mxGeometry>
        </mxCell>
        <mxCell id="gdpJ4mHGTSDNpWsRKSU2-22" value="回调自己" style="edgeLabel;html=1;align=center;verticalAlign=middle;resizable=0;points=[];" vertex="1" connectable="0" parent="gdpJ4mHGTSDNpWsRKSU2-13">
          <mxGeometry x="-0.1807" y="-3" relative="1" as="geometry">
            <mxPoint as="offset" />
          </mxGeometry>
        </mxCell>
        <mxCell id="gdpJ4mHGTSDNpWsRKSU2-11" value="MXLHelper.MXLtoXMLstring()&lt;br&gt;解析出str" style="rounded=1;whiteSpace=wrap;html=1;horizontal=1;verticalAlign=middle;" vertex="1" parent="WIyWlLk6GJQsqaUBKTNV-1">
          <mxGeometry x="880" y="-40" width="190" height="60" as="geometry" />
        </mxCell>
        <mxCell id="gdpJ4mHGTSDNpWsRKSU2-37" style="edgeStyle=orthogonalEdgeStyle;rounded=0;orthogonalLoop=1;jettySize=auto;html=1;exitX=0.5;exitY=1;exitDx=0;exitDy=0;entryX=0.5;entryY=0;entryDx=0;entryDy=0;" edge="1" parent="WIyWlLk6GJQsqaUBKTNV-1" source="gdpJ4mHGTSDNpWsRKSU2-14" target="gdpJ4mHGTSDNpWsRKSU2-25">
          <mxGeometry relative="1" as="geometry" />
        </mxCell>
        <mxCell id="gdpJ4mHGTSDNpWsRKSU2-14" value="UTF-16?" style="rounded=1;whiteSpace=wrap;html=1;horizontal=1;verticalAlign=middle;" vertex="1" parent="WIyWlLk6GJQsqaUBKTNV-1">
          <mxGeometry x="630" y="60" width="160" height="60" as="geometry" />
        </mxCell>
        <mxCell id="gdpJ4mHGTSDNpWsRKSU2-19" value="" style="edgeStyle=orthogonalEdgeStyle;rounded=0;orthogonalLoop=1;jettySize=auto;html=1;" edge="1" parent="WIyWlLk6GJQsqaUBKTNV-1" source="gdpJ4mHGTSDNpWsRKSU2-16" target="gdpJ4mHGTSDNpWsRKSU2-18">
          <mxGeometry relative="1" as="geometry" />
        </mxCell>
        <mxCell id="gdpJ4mHGTSDNpWsRKSU2-41" style="edgeStyle=orthogonalEdgeStyle;rounded=0;orthogonalLoop=1;jettySize=auto;html=1;exitX=0.5;exitY=1;exitDx=0;exitDy=0;entryX=0.5;entryY=0;entryDx=0;entryDy=0;jumpStyle=arc;" edge="1" parent="WIyWlLk6GJQsqaUBKTNV-1" source="gdpJ4mHGTSDNpWsRKSU2-16" target="gdpJ4mHGTSDNpWsRKSU2-23">
          <mxGeometry relative="1" as="geometry" />
        </mxCell>
        <mxCell id="gdpJ4mHGTSDNpWsRKSU2-42" value="最后获取xml对象" style="edgeLabel;html=1;align=center;verticalAlign=middle;resizable=0;points=[];" vertex="1" connectable="0" parent="gdpJ4mHGTSDNpWsRKSU2-41">
          <mxGeometry x="-0.0222" y="1" relative="1" as="geometry">
            <mxPoint as="offset" />
          </mxGeometry>
        </mxCell>
        <mxCell id="gdpJ4mHGTSDNpWsRKSU2-16" value="URL" style="rounded=1;whiteSpace=wrap;html=1;horizontal=1;verticalAlign=middle;" vertex="1" parent="WIyWlLk6GJQsqaUBKTNV-1">
          <mxGeometry x="630" y="280" width="160" height="60" as="geometry" />
        </mxCell>
        <mxCell id="gdpJ4mHGTSDNpWsRKSU2-39" style="edgeStyle=orthogonalEdgeStyle;rounded=0;orthogonalLoop=1;jettySize=auto;html=1;exitX=0.5;exitY=1;exitDx=0;exitDy=0;entryX=0.5;entryY=1;entryDx=0;entryDy=0;jumpStyle=arc;" edge="1" parent="WIyWlLk6GJQsqaUBKTNV-1" source="gdpJ4mHGTSDNpWsRKSU2-18" target="gdpJ4mHGTSDNpWsRKSU2-1">
          <mxGeometry relative="1" as="geometry" />
        </mxCell>
        <mxCell id="gdpJ4mHGTSDNpWsRKSU2-40" value="回调" style="edgeLabel;html=1;align=center;verticalAlign=middle;resizable=0;points=[];" vertex="1" connectable="0" parent="gdpJ4mHGTSDNpWsRKSU2-39">
          <mxGeometry x="-0.248" y="2" relative="1" as="geometry">
            <mxPoint x="-138" y="-2" as="offset" />
          </mxGeometry>
        </mxCell>
        <mxCell id="gdpJ4mHGTSDNpWsRKSU2-18" value="HTTP获取内容后回调" style="rounded=1;whiteSpace=wrap;html=1;horizontal=1;verticalAlign=middle;" vertex="1" parent="WIyWlLk6GJQsqaUBKTNV-1">
          <mxGeometry x="880" y="280" width="160" height="60" as="geometry" />
        </mxCell>
        <mxCell id="gdpJ4mHGTSDNpWsRKSU2-46" value="" style="edgeStyle=orthogonalEdgeStyle;rounded=0;orthogonalLoop=1;jettySize=auto;html=1;" edge="1" parent="WIyWlLk6GJQsqaUBKTNV-1" source="gdpJ4mHGTSDNpWsRKSU2-23" target="gdpJ4mHGTSDNpWsRKSU2-45">
          <mxGeometry relative="1" as="geometry" />
        </mxCell>
        <mxCell id="gdpJ4mHGTSDNpWsRKSU2-48" value="" style="edgeStyle=orthogonalEdgeStyle;rounded=0;orthogonalLoop=1;jettySize=auto;html=1;" edge="1" parent="WIyWlLk6GJQsqaUBKTNV-1" source="gdpJ4mHGTSDNpWsRKSU2-23" target="gdpJ4mHGTSDNpWsRKSU2-47">
          <mxGeometry relative="1" as="geometry" />
        </mxCell>
        <mxCell id="gdpJ4mHGTSDNpWsRKSU2-23" value="使用MusicSheetReader解析xml对象生成MusicSheet" style="rounded=1;whiteSpace=wrap;html=1;horizontal=1;verticalAlign=middle;" vertex="1" parent="WIyWlLk6GJQsqaUBKTNV-1">
          <mxGeometry x="615" y="430" width="190" height="60" as="geometry" />
        </mxCell>
        <mxCell id="gdpJ4mHGTSDNpWsRKSU2-38" style="edgeStyle=orthogonalEdgeStyle;rounded=0;orthogonalLoop=1;jettySize=auto;html=1;exitX=0.5;exitY=1;exitDx=0;exitDy=0;entryX=0.5;entryY=0;entryDx=0;entryDy=0;" edge="1" parent="WIyWlLk6GJQsqaUBKTNV-1" source="gdpJ4mHGTSDNpWsRKSU2-25" target="gdpJ4mHGTSDNpWsRKSU2-16">
          <mxGeometry relative="1" as="geometry" />
        </mxCell>
        <mxCell id="gdpJ4mHGTSDNpWsRKSU2-44" value="" style="edgeStyle=orthogonalEdgeStyle;rounded=0;orthogonalLoop=1;jettySize=auto;html=1;" edge="1" parent="WIyWlLk6GJQsqaUBKTNV-1" source="gdpJ4mHGTSDNpWsRKSU2-25" target="gdpJ4mHGTSDNpWsRKSU2-43">
          <mxGeometry relative="1" as="geometry" />
        </mxCell>
        <mxCell id="gdpJ4mHGTSDNpWsRKSU2-25" value="xml" style="rounded=1;whiteSpace=wrap;html=1;horizontal=1;verticalAlign=middle;" vertex="1" parent="WIyWlLk6GJQsqaUBKTNV-1">
          <mxGeometry x="630" y="160" width="160" height="60" as="geometry" />
        </mxCell>
        <mxCell id="gdpJ4mHGTSDNpWsRKSU2-35" value="" style="edgeStyle=orthogonalEdgeStyle;rounded=0;orthogonalLoop=1;jettySize=auto;html=1;" edge="1" parent="WIyWlLk6GJQsqaUBKTNV-1" source="gdpJ4mHGTSDNpWsRKSU2-30" target="gdpJ4mHGTSDNpWsRKSU2-34">
          <mxGeometry relative="1" as="geometry" />
        </mxCell>
        <mxCell id="gdpJ4mHGTSDNpWsRKSU2-30" value="再次计算尺寸" style="rounded=1;whiteSpace=wrap;html=1;horizontal=1;verticalAlign=middle;" vertex="1" parent="WIyWlLk6GJQsqaUBKTNV-1">
          <mxGeometry x="220" y="690" width="240" height="60" as="geometry" />
        </mxCell>
        <mxCell id="gdpJ4mHGTSDNpWsRKSU2-34" value="使用VexFlowMusicSheetDrawer.drawSheet()进行渲染" style="rounded=1;whiteSpace=wrap;html=1;horizontal=1;verticalAlign=middle;" vertex="1" parent="WIyWlLk6GJQsqaUBKTNV-1">
          <mxGeometry x="220" y="830" width="240" height="60" as="geometry" />
        </mxCell>
        <mxCell id="gdpJ4mHGTSDNpWsRKSU2-43" value="DOMParser解析xml" style="rounded=1;whiteSpace=wrap;html=1;horizontal=1;verticalAlign=middle;" vertex="1" parent="WIyWlLk6GJQsqaUBKTNV-1">
          <mxGeometry x="870" y="160" width="160" height="60" as="geometry" />
        </mxCell>
        <mxCell id="gdpJ4mHGTSDNpWsRKSU2-45" value="使用MusicSheetReader解析xml对象生成MusicSheet" style="rounded=1;whiteSpace=wrap;html=1;horizontal=1;verticalAlign=middle;" vertex="1" parent="WIyWlLk6GJQsqaUBKTNV-1">
          <mxGeometry x="1130" y="430" width="190" height="60" as="geometry" />
        </mxCell>
        <mxCell id="gdpJ4mHGTSDNpWsRKSU2-47" value="updateGraphic()&lt;br&gt;使用GraphicalMusicSheet将乐谱Musicxml转为图谱GraphicalMusicSheet" style="rounded=1;whiteSpace=wrap;html=1;horizontal=1;verticalAlign=middle;" vertex="1" parent="WIyWlLk6GJQsqaUBKTNV-1">
          <mxGeometry x="615" y="570" width="190" height="60" as="geometry" />
        </mxCell>
      </root>
    </mxGraphModel>
  </diagram>
</mxfile>
